<?xml version="1.0" encoding="UTF-8" standalone="no"?>
<!DOCTYPE svg PUBLIC "-//W3C//DTD SVG 1.1//EN"
 "http://www.w3.org/Graphics/SVG/1.1/DTD/svg11.dtd">
<!-- Generated by graphviz version 2.40.1 (0)
 -->
<!-- Title: %3 Pages: 1 -->
<svg width="1315pt" height="198pt"
 viewBox="0.00 0.00 1315.34 198.00" xmlns="http://www.w3.org/2000/svg" xmlns:xlink="http://www.w3.org/1999/xlink">
<g id="graph0" class="graph" transform="scale(1 1) rotate(0) translate(4 194)">
<title>%3</title>
<polygon fill="#ffffff" stroke="transparent" points="-4,4 -4,-194 1311.342,-194 1311.342,4 -4,4"/>
<!-- EngineeredMaterial -->
<g id="node1" class="node">
<title>EngineeredMaterial</title>
<g id="a_node1"><a xlink:href="http://emmo.info/emmo/middle/manufacturing#EMMO_ec7464a9_d99d_45f8_965b_4e9230ea8356" xlink:title="EngineeredMaterial">
<ellipse fill="#ffffcc" stroke="#000000" cx="845.342" cy="-100" rx="103.9815" ry="18"/>
<text text-anchor="middle" x="845.342" y="-96.3" font-family="Times,serif" font-size="14.00" fill="#000000">EngineeredMaterial</text>
</a>
</g>
</g>
<!-- Material -->
<g id="node7" class="node">
<title>Material</title>
<g id="a_node7"><a xlink:href="http://emmo.info/emmo/middle/physicalistic#EMMO_4207e895_8b83_4318_996a_72cfb32acd94" xlink:title="Material">
<ellipse fill="#ffffcc" stroke="#000000" stroke-width="2" cx="469.342" cy="-172" rx="50.0912" ry="18"/>
<text text-anchor="middle" x="469.342" y="-168.3" font-family="Times,serif" font-size="14.00" fill="#000000">Material</text>
</a>
</g>
</g>
<!-- EngineeredMaterial&#45;&gt;Material -->
<g id="edge7" class="edge">
<title>EngineeredMaterial&#45;&gt;Material</title>
<path fill="none" stroke="#000000" d="M775.5005,-113.3739C702.5763,-127.3381 589.7639,-148.9405 523.3646,-161.6552"/>
<polygon fill="none" stroke="#000000" points="522.6807,-158.2225 513.5174,-163.5409 523.9973,-165.0976 522.6807,-158.2225"/>
</g>
<!-- NanoParticle -->
<g id="node2" class="node">
<title>NanoParticle</title>
<g id="a_node2"><a xlink:href="http://emmo.info/emmo/middle/materials#EMMO_10dd1eed_da7d_45a3_860c_477ca9e152aa" xlink:title="NanoParticle">
<ellipse fill="#ffffcc" stroke="#000000" cx="648.342" cy="-23" rx="70.6878" ry="18"/>
<text text-anchor="middle" x="648.342" y="-19.3" font-family="Times,serif" font-size="14.00" fill="#000000">NanoParticle</text>
</a>
</g>
</g>
<!-- NanoMaterial -->
<g id="node6" class="node">
<title>NanoMaterial</title>
<g id="a_node6"><a xlink:href="http://emmo.info/emmo/middle/materials#EMMO_5d659e25_a508_43ed_903c_3707c7c7cd4b" xlink:title="NanoMaterial">
<ellipse fill="#ffffcc" stroke="#000000" cx="648.342" cy="-100" rx="74.9875" ry="18"/>
<text text-anchor="middle" x="648.342" y="-96.3" font-family="Times,serif" font-size="14.00" fill="#000000">NanoMaterial</text>
</a>
</g>
</g>
<!-- NanoParticle&#45;&gt;NanoMaterial -->
<g id="edge4" class="edge">
<title>NanoParticle&#45;&gt;NanoMaterial</title>
<path fill="none" stroke="#000000" d="M648.342,-41.2479C648.342,-50.3578 648.342,-61.5826 648.342,-71.7718"/>
<polygon fill="none" stroke="#000000" points="644.8421,-71.883 648.342,-81.8831 651.8421,-71.8831 644.8421,-71.883"/>
</g>
<!-- ReactiveMaterial -->
<g id="node3" class="node">
<title>ReactiveMaterial</title>
<g id="a_node3"><a xlink:href="http://emmo.info/emmo/middle/materials#EMMO_68390bfb_e307_479d_8f78_d66d8773cb1d" xlink:title="ReactiveMaterial">
<ellipse fill="#ffffcc" stroke="#000000" cx="90.342" cy="-100" rx="90.1842" ry="18"/>
<text text-anchor="middle" x="90.342" y="-96.3" font-family="Times,serif" font-size="14.00" fill="#000000">ReactiveMaterial</text>
</a>
</g>
</g>
<!-- ReactiveMaterial&#45;&gt;Material -->
<g id="edge8" class="edge">
<title>ReactiveMaterial&#45;&gt;Material</title>
<path fill="none" stroke="#000000" d="M155.9261,-112.4592C229.1785,-126.3753 346.4219,-148.6484 414.8377,-161.6456"/>
<polygon fill="none" stroke="#000000" points="414.4978,-165.1436 424.9754,-163.5715 415.8044,-158.2666 414.4978,-165.1436"/>
</g>
<!-- CrystalUnitCell -->
<g id="node4" class="node">
<title>CrystalUnitCell</title>
<g id="a_node4"><a xlink:href="http://www.emmc.info/emmc-csa/demo#DEMO_41ce2741-79a4-4127-887d-466ffe06c366" xlink:title="CrystalUnitCell">
<ellipse fill="#ffffcc" stroke="#000000" cx="282.342" cy="-100" rx="83.3857" ry="18"/>
<text text-anchor="middle" x="282.342" y="-96.3" font-family="Times,serif" font-size="14.00" fill="#000000">CrystalUnitCell</text>
</a>
</g>
</g>
<!-- CrystalUnitCell&#45;&gt;Material -->
<g id="edge6" class="edge">
<title>CrystalUnitCell&#45;&gt;Material</title>
<path fill="none" stroke="#000000" d="M323.3799,-115.8007C353.5511,-127.4174 394.498,-143.183 425.3442,-155.0597"/>
<polygon fill="none" stroke="#000000" points="424.388,-158.4419 434.9778,-158.7689 426.9032,-151.9094 424.388,-158.4419"/>
</g>
<!-- NaturalMaterial -->
<g id="node5" class="node">
<title>NaturalMaterial</title>
<g id="a_node5"><a xlink:href="http://emmo.info/emmo/middle/materials#EMMO_75fe4fd1_0f7e_429b_b91d_59d248561bae" xlink:title="NaturalMaterial">
<ellipse fill="#ffffcc" stroke="#000000" cx="469.342" cy="-100" rx="85.5853" ry="18"/>
<text text-anchor="middle" x="469.342" y="-96.3" font-family="Times,serif" font-size="14.00" fill="#000000">NaturalMaterial</text>
</a>
</g>
</g>
<!-- NaturalMaterial&#45;&gt;Material -->
<g id="edge5" class="edge">
<title>NaturalMaterial&#45;&gt;Material</title>
<path fill="none" stroke="#000000" d="M469.342,-118.1686C469.342,-125.869 469.342,-135.0257 469.342,-143.5834"/>
<polygon fill="none" stroke="#000000" points="465.8421,-143.5867 469.342,-153.5867 472.8421,-143.5868 465.8421,-143.5867"/>
</g>
<!-- NanoMaterial&#45;&gt;Material -->
<g id="edge3" class="edge">
<title>NanoMaterial&#45;&gt;Material</title>
<path fill="none" stroke="#000000" d="M609.942,-115.4458C581.2066,-127.0042 541.9024,-142.8137 512.1549,-154.7792"/>
<polygon fill="none" stroke="#000000" points="510.8294,-151.5397 502.8579,-158.5187 513.4417,-158.0341 510.8294,-151.5397"/>
</g>
<!-- InterfaceModel -->
<g id="node8" class="node">
<title>InterfaceModel</title>
<g id="a_node8"><a xlink:href="http://www.emmc.info/emmc-csa/demo#DEMO_f3f2c1b7-7ff9-4129-ab28-0b04c7116eae" xlink:title="InterfaceModel">
<ellipse fill="#ffffcc" stroke="#000000" cx="282.342" cy="-23" rx="81.4863" ry="18"/>
<text text-anchor="middle" x="282.342" y="-19.3" font-family="Times,serif" font-size="14.00" fill="#000000">InterfaceModel</text>
</a>
</g>
</g>
<!-- InterfaceModel&#45;&gt;CrystalUnitCell -->
<g id="edge9" class="edge">
<title>InterfaceModel&#45;&gt;CrystalUnitCell</title>
<path fill="none" stroke="#000000" d="M282.342,-41.2479C282.342,-50.3578 282.342,-61.5826 282.342,-71.7718"/>
<polygon fill="none" stroke="#000000" points="278.8421,-71.883 282.342,-81.8831 285.8421,-71.8831 278.8421,-71.883"/>
</g>
<!-- WeldedComponent -->
<g id="node9" class="node">
<title>WeldedComponent</title>
<g id="a_node9"><a xlink:href="http://www.emmc.info/emmc-csa/demo#DEMO_f079fb15-e15d-4de9-a0c8-5482c530667f" xlink:title="WeldedComponent">
<ellipse fill="#ffffcc" stroke="#000000" cx="845.342" cy="-23" rx="98.2828" ry="18"/>
<text text-anchor="middle" x="845.342" y="-19.3" font-family="Times,serif" font-size="14.00" fill="#000000">WeldedComponent</text>
</a>
</g>
</g>
<!-- WeldedComponent&#45;&gt;EngineeredMaterial -->
<g id="edge1" class="edge">
<title>WeldedComponent&#45;&gt;EngineeredMaterial</title>
<path fill="none" stroke="#000000" d="M845.342,-41.2479C845.342,-50.3578 845.342,-61.5826 845.342,-71.7718"/>
<polygon fill="none" stroke="#000000" points="841.8421,-71.883 845.342,-81.8831 848.8421,-71.8831 841.8421,-71.883"/>
</g>
<!-- WeldedComponent&#45;&gt;Material -->
<g id="edge2" class="edge">
<title>WeldedComponent&#45;&gt;Material</title>
<path fill="none" stroke="#006400" d="M890.2809,-39.1823C932.7815,-56.8757 986.2142,-86.8804 958.342,-118 930.1785,-149.4448 653.8984,-164.5268 529.5061,-169.7658"/>
<polygon fill="#006400" stroke="#006400" points="529.2309,-166.2741 519.3842,-170.1845 529.5203,-173.2681 529.2309,-166.2741"/>
</g>
<!-- key1 -->
<g id="node10" class="node">
<title>key1</title>
<text text-anchor="start" x="1203.342" y="-28.8" font-family="Times,serif" font-size="14.00" fill="#000000">isA</text>
<text text-anchor="start" x="972.342" y="-9.8" font-family="Times,serif" font-size="14.00" fill="#000000">reductionistic.hasSpatialDirectPart</text>
</g>
<!-- key2 -->
<g id="node11" class="node">
<title>key2</title>
<text text-anchor="start" x="1278.342" y="-28.8" font-family="Times,serif" font-size="14.00" fill="#000000"> </text>
<text text-anchor="start" x="1278.342" y="-9.8" font-family="Times,serif" font-size="14.00" fill="#000000"> </text>
</g>
<!-- key1&#45;&gt;key2 -->
<g id="edge10" class="edge">
<title>key1:e&#45;&gt;key2:w</title>
<path fill="none" stroke="#006400" d="M1227.342,-13C1245.2066,-13 1252.0802,-13 1265.995,-13"/>
<polygon fill="#006400" stroke="#006400" points="1266.342,-16.5001 1276.342,-13 1266.342,-9.5001 1266.342,-16.5001"/>
</g>
<!-- key1&#45;&gt;key2 -->
<g id="edge11" class="edge">
<title>key1:e&#45;&gt;key2:w</title>
<path fill="none" stroke="#000000" d="M1227.342,-33C1245.2066,-33 1252.0802,-33 1265.995,-33"/>
<polygon fill="none" stroke="#000000" points="1266.342,-36.5001 1276.342,-33 1266.342,-29.5001 1266.342,-36.5001"/>
</g>
</g>
</svg>
