<?xml version="1.0" encoding="UTF-8" standalone="no"?>
<!DOCTYPE svg PUBLIC "-//W3C//DTD SVG 1.1//EN"
 "http://www.w3.org/Graphics/SVG/1.1/DTD/svg11.dtd">
<!-- Generated by graphviz version 2.40.1 (0)
 -->
<!-- Title: %3 Pages: 1 -->
<svg width="649pt" height="490pt"
 viewBox="0.00 0.00 649.37 489.50" xmlns="http://www.w3.org/2000/svg" xmlns:xlink="http://www.w3.org/1999/xlink">
<g id="graph0" class="graph" transform="scale(1 1) rotate(0) translate(4 485.5)">
<title>%3</title>
<polygon fill="#ffffff" stroke="transparent" points="-4,4 -4,-485.5 645.3737,-485.5 645.3737,4 -4,4"/>
<!-- CrystalUnitCell -->
<g id="node1" class="node">
<title>CrystalUnitCell</title>
<g id="a_node1"><a xlink:href="http://www.emmc.info/emmc-csa/demo#DEMO_41ce2741-79a4-4127-887d-466ffe06c366" xlink:title="CrystalUnitCell">
<ellipse fill="#ffffcc" stroke="#000000" cx="272.5911" cy="-72" rx="83.3857" ry="18"/>
<text text-anchor="middle" x="272.5911" y="-68.3" font-family="Times,serif" font-size="14.00" fill="#000000">CrystalUnitCell</text>
</a>
</g>
</g>
<!-- Material -->
<g id="node4" class="node">
<title>Material</title>
<g id="a_node4"><a xlink:href="http://emmo.info/emmo/middle/physicalistic#EMMO_4207e895_8b83_4318_996a_72cfb32acd94" xlink:title="Material">
<ellipse fill="#ffffcc" stroke="#ff0000" cx="50.0456" cy="-72" rx="50.0912" ry="18"/>
<text text-anchor="middle" x="50.0456" y="-68.3" font-family="Times,serif" font-size="14.00" fill="#000000">Material</text>
</a>
</g>
</g>
<!-- CrystalUnitCell&#45;&gt;Material -->
<g id="edge1" class="edge">
<title>CrystalUnitCell&#45;&gt;Material</title>
<path fill="none" stroke="#000000" d="M189.0902,-72C162.9737,-72 134.6768,-72 110.4699,-72"/>
<polygon fill="none" stroke="#000000" points="110.3643,-68.5001 100.3643,-72 110.3643,-75.5001 110.3643,-68.5001"/>
</g>
<!-- BondedAtom -->
<g id="node5" class="node">
<title>BondedAtom</title>
<g id="a_node5"><a xlink:href="http://emmo.info/emmo/middle/materials#EMMO_8303a247_f9d9_4616_bdcd_f5cbd7b298e3" xlink:title="BondedAtom">
<ellipse fill="#ffffcc" stroke="#ff0000" cx="543.2324" cy="-234" rx="70.3881" ry="18"/>
<text text-anchor="middle" x="543.2324" y="-230.3" font-family="Times,serif" font-size="14.00" fill="#000000">BondedAtom</text>
</a>
</g>
</g>
<!-- CrystalUnitCell&#45;&gt;BondedAtom -->
<g id="edge2" class="edge">
<title>CrystalUnitCell&#45;&gt;BondedAtom</title>
<path fill="none" stroke="#006400" d="M290.058,-89.6286C319.4762,-118.3448 381.9078,-175.2018 445.0911,-207 455.3465,-212.1612 466.7175,-216.4417 477.9774,-219.9562"/>
<polygon fill="#006400" stroke="#006400" points="477.2317,-223.385 487.813,-222.8503 479.2077,-216.6697 477.2317,-223.385"/>
</g>
<!-- LatticeVector -->
<g id="node6" class="node">
<title>LatticeVector</title>
<g id="a_node6"><a xlink:href="http://www.emmc.info/emmc-csa/demo#DEMO_35709aef-7c3d-4692-b009-0ac345c2019b" xlink:title="LatticeVector">
<ellipse fill="#ffffcc" stroke="#ff0000" cx="543.2324" cy="-180" rx="72.5877" ry="18"/>
<text text-anchor="middle" x="543.2324" y="-176.3" font-family="Times,serif" font-size="14.00" fill="#000000">LatticeVector</text>
</a>
</g>
</g>
<!-- CrystalUnitCell&#45;&gt;LatticeVector -->
<g id="edge3" class="edge">
<title>CrystalUnitCell&#45;&gt;LatticeVector</title>
<path fill="none" stroke="#ffa500" stroke-dasharray="1,5" d="M304.0042,-88.7439C338.0568,-106.4184 394.3461,-134.2613 445.0911,-153 456.5528,-157.2325 468.9821,-161.1482 481.0203,-164.6095"/>
<polygon fill="#ffa500" stroke="#ffa500" points="480.4371,-168.0808 491.0105,-167.4072 482.3248,-161.3401 480.4371,-168.0808"/>
</g>
<!-- StiffnessTensor -->
<g id="node7" class="node">
<title>StiffnessTensor</title>
<g id="a_node7"><a xlink:href="http://www.emmc.info/emmc-csa/demo#DEMO_0d8443b9-fe90-4837-b43d-22a25c3b8ce8" xlink:title="StiffnessTensor">
<ellipse fill="#ffffcc" stroke="#ff0000" cx="543.2324" cy="-126" rx="82.5854" ry="18"/>
<text text-anchor="middle" x="543.2324" y="-122.3" font-family="Times,serif" font-size="14.00" fill="#000000">StiffnessTensor</text>
</a>
</g>
</g>
<!-- CrystalUnitCell&#45;&gt;StiffnessTensor -->
<g id="edge4" class="edge">
<title>CrystalUnitCell&#45;&gt;StiffnessTensor</title>
<path fill="none" stroke="#ffa500" stroke-dasharray="1,5" d="M333.9113,-84.235C375.0409,-92.4414 429.3416,-103.2758 472.3296,-111.853"/>
<polygon fill="#ffa500" stroke="#ffa500" points="471.6662,-115.2896 482.1578,-113.814 473.0359,-108.4249 471.6662,-115.2896"/>
</g>
<!-- InterfaceModel -->
<g id="node2" class="node">
<title>InterfaceModel</title>
<g id="a_node2"><a xlink:href="http://www.emmc.info/emmc-csa/demo#DEMO_f3f2c1b7-7ff9-4129-ab28-0b04c7116eae" xlink:title="InterfaceModel">
<ellipse fill="#ffffcc" stroke="#000000" cx="543.2324" cy="-72" rx="81.4863" ry="18"/>
<text text-anchor="middle" x="543.2324" y="-68.3" font-family="Times,serif" font-size="14.00" fill="#000000">InterfaceModel</text>
</a>
</g>
</g>
<!-- InterfaceModel&#45;&gt;CrystalUnitCell -->
<g id="edge5" class="edge">
<title>InterfaceModel&#45;&gt;CrystalUnitCell</title>
<path fill="none" stroke="#000000" d="M461.6641,-72C431.5998,-72 397.3086,-72 366.2592,-72"/>
<polygon fill="none" stroke="#000000" points="365.8645,-68.5001 355.8645,-72 365.8645,-75.5001 365.8645,-68.5001"/>
</g>
<!-- Area -->
<g id="node8" class="node">
<title>Area</title>
<g id="a_node8"><a xlink:href="http://www.emmc.info/emmc-csa/demo#DEMO_342d8f55-12bd-4a57-8c50-590b3ff82e1a" xlink:title="Area">
<ellipse fill="#ffffcc" stroke="#ff0000" cx="543.2324" cy="-18" rx="32.4942" ry="18"/>
<text text-anchor="middle" x="543.2324" y="-14.3" font-family="Times,serif" font-size="14.00" fill="#000000">Area</text>
</a>
</g>
</g>
<!-- InterfaceModel&#45;&gt;Area -->
<g id="edge6" class="edge">
<title>InterfaceModel&#45;&gt;Area</title>
<path fill="none" stroke="#ffa500" stroke-dasharray="1,5" d="M543.2324,-53.7902C543.2324,-51.3082 543.2324,-48.8262 543.2324,-46.3443"/>
<polygon fill="#ffa500" stroke="#ffa500" points="546.7325,-46.1406 543.2324,-36.1406 539.7325,-46.1407 546.7325,-46.1406"/>
</g>
<!-- WeldedComponent -->
<g id="node3" class="node">
<title>WeldedComponent</title>
<g id="a_node3"><a xlink:href="http://www.emmc.info/emmc-csa/demo#DEMO_f079fb15-e15d-4de9-a0c8-5482c530667f" xlink:title="WeldedComponent">
<ellipse fill="#ffffcc" stroke="#000000" cx="543.2324" cy="-342" rx="98.2828" ry="18"/>
<text text-anchor="middle" x="543.2324" y="-338.3" font-family="Times,serif" font-size="14.00" fill="#000000">WeldedComponent</text>
</a>
</g>
</g>
<!-- WeldedComponent&#45;&gt;Material -->
<g id="edge8" class="edge">
<title>WeldedComponent&#45;&gt;Material</title>
<path fill="none" stroke="#006400" d="M480.3703,-355.8292C379.8216,-376.3899 188.7601,-408.5758 136.0911,-369 92.3997,-336.17 63.7778,-167.6894 53.8924,-100.1025"/>
<polygon fill="#006400" stroke="#006400" points="57.3505,-99.5601 52.4673,-90.1577 50.4213,-100.5531 57.3505,-99.5601"/>
</g>
<!-- EngineeredMaterial -->
<g id="node9" class="node">
<title>EngineeredMaterial</title>
<g id="a_node9"><a xlink:href="http://emmo.info/emmo/middle/manufacturing#EMMO_ec7464a9_d99d_45f8_965b_4e9230ea8356" xlink:title="EngineeredMaterial">
<ellipse fill="#ffffcc" stroke="#ff0000" cx="272.5911" cy="-342" rx="103.9815" ry="18"/>
<text text-anchor="middle" x="272.5911" y="-338.3" font-family="Times,serif" font-size="14.00" fill="#000000">EngineeredMaterial</text>
</a>
</g>
</g>
<!-- WeldedComponent&#45;&gt;EngineeredMaterial -->
<g id="edge7" class="edge">
<title>WeldedComponent&#45;&gt;EngineeredMaterial</title>
<path fill="none" stroke="#000000" d="M444.7591,-342C426.0545,-342 406.3332,-342 387.1795,-342"/>
<polygon fill="none" stroke="#000000" points="386.9166,-338.5001 376.9166,-342 386.9165,-345.5001 386.9166,-338.5001"/>
</g>
<!-- Boundary -->
<g id="node10" class="node">
<title>Boundary</title>
<g id="a_node10"><a xlink:href="http://www.emmc.info/emmc-csa/demo#DEMO_4836ef12-acf3-4373-8f3c-0333e668b4df" xlink:title="Boundary">
<ellipse fill="#ffc880" stroke="#ff0000" cx="543.2324" cy="-288" rx="55.7903" ry="18"/>
<text text-anchor="middle" x="543.2324" y="-284.3" font-family="Times,serif" font-size="14.00" fill="#000000">Boundary</text>
</a>
</g>
</g>
<!-- WeldedComponent&#45;&gt;Boundary -->
<g id="edge9" class="edge">
<title>WeldedComponent&#45;&gt;Boundary</title>
<path fill="none" stroke="#006400" d="M543.2324,-323.7902C543.2324,-321.3082 543.2324,-318.8262 543.2324,-316.3443"/>
<polygon fill="#006400" stroke="#006400" points="546.7325,-316.1406 543.2324,-306.1406 539.7325,-316.1407 546.7325,-316.1406"/>
</g>
<!-- key1 -->
<g id="node11" class="node">
<title>key1</title>
<text text-anchor="start" x="377.5911" y="-463.8" font-family="Times,serif" font-size="14.00" fill="#000000">isA</text>
<text text-anchor="start" x="232.5911" y="-444.8" font-family="Times,serif" font-size="14.00" fill="#000000">properties.hasProperty</text>
<text text-anchor="start" x="146.5911" y="-425.8" font-family="Times,serif" font-size="14.00" fill="#000000">reductionistic.hasSpatialDirectPart</text>
</g>
<!-- key2 -->
<g id="node12" class="node">
<title>key2</title>
<text text-anchor="start" x="541.2324" y="-463.8" font-family="Times,serif" font-size="14.00" fill="#000000"> </text>
<text text-anchor="start" x="541.2324" y="-444.8" font-family="Times,serif" font-size="14.00" fill="#000000"> </text>
<text text-anchor="start" x="541.2324" y="-425.8" font-family="Times,serif" font-size="14.00" fill="#000000"> </text>
</g>
<!-- key2&#45;&gt;key1 -->
<g id="edge10" class="edge">
<title>key2:w&#45;&gt;key1:e</title>
<path fill="none" stroke="#000000" d="M539.2324,-468C481.6429,-468 464.7147,-468 411.8903,-468"/>
<polygon fill="none" stroke="#000000" points="411.5912,-464.5001 401.5911,-468 411.5911,-471.5001 411.5912,-464.5001"/>
</g>
<!-- key2&#45;&gt;key1 -->
<g id="edge11" class="edge">
<title>key2:w&#45;&gt;key1:e</title>
<path fill="none" stroke="#ffa500" stroke-dasharray="1,5" d="M539.2324,-448C481.6429,-448 464.7147,-448 411.8903,-448"/>
<polygon fill="#ffa500" stroke="#ffa500" points="411.5912,-444.5001 401.5911,-448 411.5911,-451.5001 411.5912,-444.5001"/>
</g>
<!-- key2&#45;&gt;key1 -->
<g id="edge12" class="edge">
<title>key2:w&#45;&gt;key1:e</title>
<path fill="none" stroke="#006400" d="M539.2324,-429C481.6429,-429 464.7147,-429 411.8903,-429"/>
<polygon fill="#006400" stroke="#006400" points="411.5912,-425.5001 401.5911,-429 411.5911,-432.5001 411.5912,-425.5001"/>
</g>
</g>
</svg>
