<?xml version="1.0" encoding="UTF-8" standalone="no"?>
<!DOCTYPE svg PUBLIC "-//W3C//DTD SVG 1.1//EN"
 "http://www.w3.org/Graphics/SVG/1.1/DTD/svg11.dtd">
<!-- Generated by graphviz version 2.40.1 (0)
 -->
<!-- Title: %3 Pages: 1 -->
<svg width="683pt" height="794pt"
 viewBox="0.00 0.00 683.15 794.00" xmlns="http://www.w3.org/2000/svg" xmlns:xlink="http://www.w3.org/1999/xlink">
<g id="graph0" class="graph" transform="scale(1 1) rotate(0) translate(4 790)">
<title>%3</title>
<polygon fill="#ffffff" stroke="transparent" points="-4,4 -4,-790 679.1456,-790 679.1456,4 -4,4"/>
<!-- RVE -->
<g id="node1" class="node">
<title>RVE</title>
<g id="a_node1"><a xlink:href="http://www.emmc.info/emmc-csa/demo#DEMO_30b2469c-8e3e-4cde-bcfd-3dd41eceaa15" xlink:title="RVE">
<ellipse fill="#ffffcc" stroke="#000000" cx="543.2324" cy="-612" rx="30.5947" ry="18"/>
<text text-anchor="middle" x="543.2324" y="-608.3" font-family="Times,serif" font-size="14.00" fill="#000000">RVE</text>
</a>
</g>
</g>
<!-- Continuum -->
<g id="node13" class="node">
<title>Continuum</title>
<g id="a_node13"><a xlink:href="http://emmo.info/emmo/middle/materials#EMMO_8b0923ab_b500_477b_9ce9_8b3a3e4dc4f2" xlink:title="Continuum">
<ellipse fill="#ffffcc" stroke="#ff0000" cx="272.5911" cy="-558" rx="61.99" ry="18"/>
<text text-anchor="middle" x="272.5911" y="-554.3" font-family="Times,serif" font-size="14.00" fill="#000000">Continuum</text>
</a>
</g>
</g>
<!-- RVE&#45;&gt;Continuum -->
<g id="edge19" class="edge">
<title>RVE&#45;&gt;Continuum</title>
<path fill="none" stroke="#000000" d="M514.2691,-606.2211C471.3677,-597.6611 389.9377,-581.4137 333.5273,-570.1583"/>
<polygon fill="none" stroke="#000000" points="334.1423,-566.7121 323.6507,-568.1877 332.7725,-573.5768 334.1423,-566.7121"/>
</g>
<!-- Area -->
<g id="node2" class="node">
<title>Area</title>
<g id="a_node2"><a xlink:href="http://www.emmc.info/emmc-csa/demo#DEMO_342d8f55-12bd-4a57-8c50-590b3ff82e1a" xlink:title="Area">
<ellipse fill="#ffffcc" stroke="#000000" cx="543.2324" cy="-342" rx="32.4942" ry="18"/>
<text text-anchor="middle" x="543.2324" y="-338.3" font-family="Times,serif" font-size="14.00" fill="#000000">Area</text>
</a>
</g>
</g>
<!-- Real -->
<g id="node16" class="node">
<title>Real</title>
<g id="a_node16"><a xlink:href="http://emmo.info/emmo/middle/math#EMMO_18d180e4_5e3e_42f7_820c_e08951223486" xlink:title="Real">
<ellipse fill="#ffc880" stroke="#ff0000" cx="543.2324" cy="-288" rx="31.3957" ry="18"/>
<text text-anchor="middle" x="543.2324" y="-284.3" font-family="Times,serif" font-size="14.00" fill="#000000">Real</text>
</a>
</g>
</g>
<!-- Area&#45;&gt;Real -->
<g id="edge21" class="edge">
<title>Area&#45;&gt;Real</title>
<path fill="none" stroke="#ffa500" stroke-dasharray="5,2" d="M543.2324,-323.7902C543.2324,-321.3082 543.2324,-318.8262 543.2324,-316.3443"/>
<polygon fill="#ffa500" stroke="#ffa500" points="546.7325,-316.1406 543.2324,-306.1406 539.7325,-316.1407 546.7325,-316.1406"/>
</g>
<!-- ISQDerivedQuantity -->
<g id="node21" class="node">
<title>ISQDerivedQuantity</title>
<g id="a_node21"><a xlink:href="http://emmo.info/emmo/middle/isq#EMMO_2946d40b_24a1_47fa_8176_e3f79bb45064" xlink:title="ISQDerivedQuantity">
<ellipse fill="#ffffcc" stroke="#ff0000" cx="272.5911" cy="-342" rx="104.7816" ry="18"/>
<text text-anchor="middle" x="272.5911" y="-338.3" font-family="Times,serif" font-size="14.00" fill="#000000">ISQDerivedQuantity</text>
</a>
</g>
</g>
<!-- Area&#45;&gt;ISQDerivedQuantity -->
<g id="edge20" class="edge">
<title>Area&#45;&gt;ISQDerivedQuantity</title>
<path fill="none" stroke="#000000" d="M510.5867,-342C479.9364,-342 432.2373,-342 387.5656,-342"/>
<polygon fill="none" stroke="#000000" points="387.4906,-338.5001 377.4906,-342 387.4906,-345.5001 387.4906,-338.5001"/>
</g>
<!-- CrystalUnitCell -->
<g id="node3" class="node">
<title>CrystalUnitCell</title>
<g id="a_node3"><a xlink:href="http://www.emmc.info/emmc-csa/demo#DEMO_41ce2741-79a4-4127-887d-466ffe06c366" xlink:title="CrystalUnitCell">
<ellipse fill="#ffffcc" stroke="#000000" cx="272.5911" cy="-234" rx="83.3857" ry="18"/>
<text text-anchor="middle" x="272.5911" y="-230.3" font-family="Times,serif" font-size="14.00" fill="#000000">CrystalUnitCell</text>
</a>
</g>
</g>
<!-- LatticeVector -->
<g id="node6" class="node">
<title>LatticeVector</title>
<g id="a_node6"><a xlink:href="http://www.emmc.info/emmc-csa/demo#DEMO_35709aef-7c3d-4692-b009-0ac345c2019b" xlink:title="LatticeVector">
<ellipse fill="#ffffcc" stroke="#000000" cx="543.2324" cy="-180" rx="72.5877" ry="18"/>
<text text-anchor="middle" x="543.2324" y="-176.3" font-family="Times,serif" font-size="14.00" fill="#000000">LatticeVector</text>
</a>
</g>
</g>
<!-- CrystalUnitCell&#45;&gt;LatticeVector -->
<g id="edge17" class="edge">
<title>CrystalUnitCell&#45;&gt;LatticeVector</title>
<path fill="none" stroke="#ffa500" stroke-dasharray="1,5" d="M333.9615,-221.755C376.4462,-213.2782 432.9663,-202.001 476.5584,-193.3032"/>
<polygon fill="#ffa500" stroke="#ffa500" points="477.3753,-196.7093 486.4971,-191.3202 476.0056,-189.8446 477.3753,-196.7093"/>
</g>
<!-- StiffnessTensor -->
<g id="node10" class="node">
<title>StiffnessTensor</title>
<g id="a_node10"><a xlink:href="http://www.emmc.info/emmc-csa/demo#DEMO_0d8443b9-fe90-4837-b43d-22a25c3b8ce8" xlink:title="StiffnessTensor">
<ellipse fill="#ffffcc" stroke="#000000" cx="543.2324" cy="-450" rx="82.5854" ry="18"/>
<text text-anchor="middle" x="543.2324" y="-446.3" font-family="Times,serif" font-size="14.00" fill="#000000">StiffnessTensor</text>
</a>
</g>
</g>
<!-- CrystalUnitCell&#45;&gt;StiffnessTensor -->
<g id="edge18" class="edge">
<title>CrystalUnitCell&#45;&gt;StiffnessTensor</title>
<path fill="none" stroke="#ffa500" stroke-dasharray="1,5" d="M314.7602,-249.6201C344.9434,-262.7948 384.4459,-284.4294 409.0911,-315 440.8466,-354.3903 408.3738,-388.1886 445.0911,-423 450.7718,-428.3858 457.4249,-432.7161 464.544,-436.195"/>
<polygon fill="#ffa500" stroke="#ffa500" points="463.2031,-439.4282 473.7726,-440.1615 465.9674,-432.9971 463.2031,-439.4282"/>
</g>
<!-- Material -->
<g id="node19" class="node">
<title>Material</title>
<g id="a_node19"><a xlink:href="http://emmo.info/emmo/middle/physicalistic#EMMO_4207e895_8b83_4318_996a_72cfb32acd94" xlink:title="Material">
<ellipse fill="#ffffcc" stroke="#ff0000" cx="50.0456" cy="-234" rx="50.0912" ry="18"/>
<text text-anchor="middle" x="50.0456" y="-230.3" font-family="Times,serif" font-size="14.00" fill="#000000">Material</text>
</a>
</g>
</g>
<!-- CrystalUnitCell&#45;&gt;Material -->
<g id="edge15" class="edge">
<title>CrystalUnitCell&#45;&gt;Material</title>
<path fill="none" stroke="#000000" d="M189.0902,-234C162.9737,-234 134.6768,-234 110.4699,-234"/>
<polygon fill="none" stroke="#000000" points="110.3643,-230.5001 100.3643,-234 110.3643,-237.5001 110.3643,-230.5001"/>
</g>
<!-- BondedAtom -->
<g id="node20" class="node">
<title>BondedAtom</title>
<g id="a_node20"><a xlink:href="http://emmo.info/emmo/middle/materials#EMMO_8303a247_f9d9_4616_bdcd_f5cbd7b298e3" xlink:title="BondedAtom">
<ellipse fill="#ffffcc" stroke="#ff0000" cx="543.2324" cy="-72" rx="70.3881" ry="18"/>
<text text-anchor="middle" x="543.2324" y="-68.3" font-family="Times,serif" font-size="14.00" fill="#000000">BondedAtom</text>
</a>
</g>
</g>
<!-- CrystalUnitCell&#45;&gt;BondedAtom -->
<g id="edge16" class="edge">
<title>CrystalUnitCell&#45;&gt;BondedAtom</title>
<path fill="none" stroke="#006400" d="M331.9553,-221.3655C358.2485,-213.2467 387.9418,-200.2891 409.0911,-180 437.5201,-152.7274 415.2285,-124.6949 445.0911,-99 452.6762,-92.4735 461.7074,-87.5132 471.1739,-83.7456"/>
<polygon fill="#006400" stroke="#006400" points="472.486,-86.9941 480.7481,-80.3617 470.1533,-80.3942 472.486,-86.9941"/>
</g>
<!-- InterfaceModel -->
<g id="node4" class="node">
<title>InterfaceModel</title>
<g id="a_node4"><a xlink:href="http://www.emmc.info/emmc-csa/demo#DEMO_f3f2c1b7-7ff9-4129-ab28-0b04c7116eae" xlink:title="InterfaceModel">
<ellipse fill="#ffffcc" stroke="#000000" cx="543.2324" cy="-234" rx="81.4863" ry="18"/>
<text text-anchor="middle" x="543.2324" y="-230.3" font-family="Times,serif" font-size="14.00" fill="#000000">InterfaceModel</text>
</a>
</g>
</g>
<!-- InterfaceModel&#45;&gt;Area -->
<g id="edge25" class="edge">
<title>InterfaceModel&#45;&gt;Area</title>
<path fill="none" stroke="#ffa500" stroke-dasharray="1,5" d="M618.6466,-240.8779C635.0867,-246.2898 650.2733,-255.2752 659.3737,-270 667.7854,-283.6104 667.7854,-292.3896 659.3737,-306 644.2855,-330.4133 612.4674,-339.0495 585.9442,-341.7808"/>
<polygon fill="#ffa500" stroke="#ffa500" points="585.4105,-338.3117 575.7132,-342.5793 585.9553,-345.2904 585.4105,-338.3117"/>
</g>
<!-- InterfaceModel&#45;&gt;CrystalUnitCell -->
<g id="edge24" class="edge">
<title>InterfaceModel&#45;&gt;CrystalUnitCell</title>
<path fill="none" stroke="#000000" d="M461.6641,-234C431.5998,-234 397.3086,-234 366.2592,-234"/>
<polygon fill="none" stroke="#000000" points="365.8645,-230.5001 355.8645,-234 365.8645,-237.5001 365.8645,-230.5001"/>
</g>
<!-- Phase -->
<g id="node5" class="node">
<title>Phase</title>
<g id="a_node5"><a xlink:href="http://www.emmc.info/emmc-csa/demo#DEMO_8cb0ab5f-ba76-4ecc-97df-8a593ceafdae" xlink:title="Phase">
<ellipse fill="#ffffcc" stroke="#000000" cx="543.2324" cy="-558" rx="38.1938" ry="18"/>
<text text-anchor="middle" x="543.2324" y="-554.3" font-family="Times,serif" font-size="14.00" fill="#000000">Phase</text>
</a>
</g>
</g>
<!-- Phase&#45;&gt;StiffnessTensor -->
<g id="edge14" class="edge">
<title>Phase&#45;&gt;StiffnessTensor</title>
<path fill="none" stroke="#ffa500" stroke-dasharray="1,5" d="M581.5799,-558.1827C608.8834,-555.9597 643.4479,-547.7685 659.3737,-522 667.7854,-508.3896 667.7854,-499.6104 659.3737,-486 652.2102,-474.4092 641.2757,-466.3748 628.9271,-460.8401"/>
<polygon fill="#ffa500" stroke="#ffa500" points="629.8362,-457.4384 619.2475,-457.0775 627.3,-463.9628 629.8362,-457.4384"/>
</g>
<!-- Phase&#45;&gt;Continuum -->
<g id="edge13" class="edge">
<title>Phase&#45;&gt;Continuum</title>
<path fill="none" stroke="#000000" d="M504.7435,-558C463.1518,-558 395.9312,-558 344.501,-558"/>
<polygon fill="none" stroke="#000000" points="344.4378,-554.5001 334.4378,-558 344.4378,-561.5001 344.4378,-554.5001"/>
</g>
<!-- Length -->
<g id="node15" class="node">
<title>Length</title>
<g id="a_node15"><a xlink:href="http://emmo.info/emmo/middle/isq#EMMO_cd2cd0de_e0cc_4ef1_b27e_2e88db027bac" xlink:title="Length">
<ellipse fill="#ffffcc" stroke="#ff0000" cx="272.5911" cy="-153" rx="43.5923" ry="18"/>
<text text-anchor="middle" x="272.5911" y="-149.3" font-family="Times,serif" font-size="14.00" fill="#000000">Length</text>
</a>
</g>
</g>
<!-- LatticeVector&#45;&gt;Length -->
<g id="edge4" class="edge">
<title>LatticeVector&#45;&gt;Length</title>
<path fill="none" stroke="#000000" d="M475.6363,-173.2564C429.1085,-168.6147 368.1885,-162.5371 325.258,-158.2542"/>
<polygon fill="none" stroke="#000000" points="325.5946,-154.7705 315.2965,-157.2604 324.8997,-161.7359 325.5946,-154.7705"/>
</g>
<!-- LatticeVector&#45;&gt;Real -->
<g id="edge5" class="edge">
<title>LatticeVector&#45;&gt;Real</title>
<path fill="none" stroke="#ffa500" stroke-dasharray="5,2" d="M613.1945,-185.2222C631.6797,-190.3866 649.2744,-199.659 659.3737,-216 667.7854,-229.6104 667.7854,-238.3896 659.3737,-252 644.0895,-276.7303 611.6381,-285.2712 584.9135,-287.8842"/>
<polygon fill="#ffa500" stroke="#ffa500" points="584.3457,-284.4163 574.6273,-288.6354 584.8557,-291.3977 584.3457,-284.4163"/>
</g>
<!-- Position -->
<g id="node7" class="node">
<title>Position</title>
<g id="a_node7"><a xlink:href="http://www.emmc.info/emmc-csa/demo#DEMO_295e5569-5486-4b87-8483-3ecedef8f4a0" xlink:title="Position">
<ellipse fill="#ffffcc" stroke="#000000" cx="543.2324" cy="-126" rx="48.1917" ry="18"/>
<text text-anchor="middle" x="543.2324" y="-122.3" font-family="Times,serif" font-size="14.00" fill="#000000">Position</text>
</a>
</g>
</g>
<!-- Position&#45;&gt;Length -->
<g id="edge6" class="edge">
<title>Position&#45;&gt;Length</title>
<path fill="none" stroke="#000000" d="M496.7075,-130.6415C449.0166,-135.3993 374.9812,-142.7853 325.1896,-147.7526"/>
<polygon fill="none" stroke="#000000" points="324.554,-144.2986 314.9509,-148.7741 325.2489,-151.264 324.554,-144.2986"/>
</g>
<!-- Position&#45;&gt;Real -->
<g id="edge7" class="edge">
<title>Position&#45;&gt;Real</title>
<path fill="none" stroke="#ffa500" stroke-dasharray="5,2" d="M591.5462,-126.8779C616.8113,-130.2278 645.3346,-139.2842 659.3737,-162 680.4029,-196.026 680.4029,-217.974 659.3737,-252 644.0895,-276.7303 611.6381,-285.2712 584.9135,-287.8842"/>
<polygon fill="#ffa500" stroke="#ffa500" points="584.3457,-284.4163 574.6273,-288.6354 584.8557,-291.3977 584.3457,-284.4163"/>
</g>
<!-- Boundary -->
<g id="node8" class="node">
<title>Boundary</title>
<g id="a_node8"><a xlink:href="http://www.emmc.info/emmc-csa/demo#DEMO_4836ef12-acf3-4373-8f3c-0333e668b4df" xlink:title="Boundary">
<ellipse fill="#ffc880" stroke="#000000" cx="543.2324" cy="-504" rx="55.7903" ry="18"/>
<text text-anchor="middle" x="543.2324" y="-500.3" font-family="Times,serif" font-size="14.00" fill="#000000">Boundary</text>
</a>
</g>
</g>
<!-- Boundary&#45;&gt;Area -->
<g id="edge2" class="edge">
<title>Boundary&#45;&gt;Area</title>
<path fill="none" stroke="#ffa500" stroke-dasharray="1,5" d="M598.8091,-502.0079C622.0925,-497.9311 646.6664,-488.5609 659.3737,-468 680.4029,-433.974 680.4029,-412.026 659.3737,-378 644.2855,-353.5867 612.4674,-344.9505 585.9442,-342.2192"/>
<polygon fill="#ffa500" stroke="#ffa500" points="585.9553,-338.7096 575.7132,-341.4207 585.4105,-345.6883 585.9553,-338.7096"/>
</g>
<!-- Boundary&#45;&gt;Continuum -->
<g id="edge1" class="edge">
<title>Boundary&#45;&gt;Continuum</title>
<path fill="none" stroke="#000000" d="M495.4702,-513.5298C450.3241,-522.5376 382.392,-536.0919 333.3969,-545.8677"/>
<polygon fill="none" stroke="#000000" points="332.6756,-542.4425 323.5538,-547.8316 334.0454,-549.3072 332.6756,-542.4425"/>
</g>
<!-- SquareMetre -->
<g id="node9" class="node">
<title>SquareMetre</title>
<g id="a_node9"><a xlink:href="http://www.emmc.info/emmc-csa/demo#DEMO_de7bfd12-fcdd-43f6-b6d1-43211d7c36ba" xlink:title="SquareMetre">
<ellipse fill="#ffffcc" stroke="#000000" cx="543.2324" cy="-666" rx="72.2875" ry="18"/>
<text text-anchor="middle" x="543.2324" y="-662.3" font-family="Times,serif" font-size="14.00" fill="#000000">SquareMetre</text>
</a>
</g>
</g>
<!-- SICoherentDerivedUnit -->
<g id="node14" class="node">
<title>SICoherentDerivedUnit</title>
<g id="a_node14"><a xlink:href="http://emmo.info/emmo/middle/siunits#EMMO_1273eb34_de48_43a9_925f_104110469dd2" xlink:title="SICoherentDerivedUnit">
<ellipse fill="#ffffcc" stroke="#ff0000" cx="272.5911" cy="-666" rx="120.4791" ry="18"/>
<text text-anchor="middle" x="272.5911" y="-662.3" font-family="Times,serif" font-size="14.00" fill="#000000">SICoherentDerivedUnit</text>
</a>
</g>
</g>
<!-- SquareMetre&#45;&gt;SICoherentDerivedUnit -->
<g id="edge3" class="edge">
<title>SquareMetre&#45;&gt;SICoherentDerivedUnit</title>
<path fill="none" stroke="#000000" d="M471.061,-666C450.0292,-666 426.3739,-666 402.9188,-666"/>
<polygon fill="none" stroke="#000000" points="402.8872,-662.5001 392.8871,-666 402.8871,-669.5001 402.8872,-662.5001"/>
</g>
<!-- StiffnessTensor&#45;&gt;Real -->
<g id="edge9" class="edge">
<title>StiffnessTensor&#45;&gt;Real</title>
<path fill="none" stroke="#ffa500" stroke-dasharray="5,2" d="M619.2475,-442.9225C635.4562,-437.4902 650.3842,-428.5453 659.3737,-414 680.4029,-379.974 680.4029,-358.026 659.3737,-324 644.0895,-299.2697 611.6381,-290.7288 584.9135,-288.1158"/>
<polygon fill="#ffa500" stroke="#ffa500" points="584.8557,-284.6023 574.6273,-287.3646 584.3457,-291.5837 584.8557,-284.6023"/>
</g>
<!-- Pressure -->
<g id="node17" class="node">
<title>Pressure</title>
<g id="a_node17"><a xlink:href="http://emmo.info/emmo/middle/isq#EMMO_50a44256_9dc5_434b_bad4_74a4d9a29989" xlink:title="Pressure">
<ellipse fill="#ffffcc" stroke="#ff0000" cx="272.5911" cy="-450" rx="51.9908" ry="18"/>
<text text-anchor="middle" x="272.5911" y="-446.3" font-family="Times,serif" font-size="14.00" fill="#000000">Pressure</text>
</a>
</g>
</g>
<!-- StiffnessTensor&#45;&gt;Pressure -->
<g id="edge8" class="edge">
<title>StiffnessTensor&#45;&gt;Pressure</title>
<path fill="none" stroke="#000000" d="M460.5605,-450C420.2065,-450 372.4521,-450 335.1752,-450"/>
<polygon fill="none" stroke="#000000" points="334.9539,-446.5001 324.9539,-450 334.9539,-453.5001 334.9539,-446.5001"/>
</g>
<!-- WeldedComponent -->
<g id="node11" class="node">
<title>WeldedComponent</title>
<g id="a_node11"><a xlink:href="http://www.emmc.info/emmc-csa/demo#DEMO_f079fb15-e15d-4de9-a0c8-5482c530667f" xlink:title="WeldedComponent">
<ellipse fill="#ffffcc" stroke="#000000" cx="543.2324" cy="-396" rx="98.2828" ry="18"/>
<text text-anchor="middle" x="543.2324" y="-392.3" font-family="Times,serif" font-size="14.00" fill="#000000">WeldedComponent</text>
</a>
</g>
</g>
<!-- WeldedComponent&#45;&gt;Boundary -->
<g id="edge12" class="edge">
<title>WeldedComponent&#45;&gt;Boundary</title>
<path fill="none" stroke="#006400" d="M626.3519,-405.7299C639.749,-411.2831 651.716,-419.6096 659.3737,-432 667.7854,-445.6104 667.7854,-454.3896 659.3737,-468 648.4533,-485.6695 628.7692,-495.0744 608.6717,-499.9576"/>
<polygon fill="#006400" stroke="#006400" points="607.8874,-496.5457 598.8091,-502.0079 609.3122,-503.3992 607.8874,-496.5457"/>
</g>
<!-- EngineeredMaterial -->
<g id="node18" class="node">
<title>EngineeredMaterial</title>
<g id="a_node18"><a xlink:href="http://emmo.info/emmo/middle/manufacturing#EMMO_ec7464a9_d99d_45f8_965b_4e9230ea8356" xlink:title="EngineeredMaterial">
<ellipse fill="#ffffcc" stroke="#ff0000" cx="272.5911" cy="-396" rx="103.9815" ry="18"/>
<text text-anchor="middle" x="272.5911" y="-392.3" font-family="Times,serif" font-size="14.00" fill="#000000">EngineeredMaterial</text>
</a>
</g>
</g>
<!-- WeldedComponent&#45;&gt;EngineeredMaterial -->
<g id="edge10" class="edge">
<title>WeldedComponent&#45;&gt;EngineeredMaterial</title>
<path fill="none" stroke="#000000" d="M444.7591,-396C426.0545,-396 406.3332,-396 387.1795,-396"/>
<polygon fill="none" stroke="#000000" points="386.9166,-392.5001 376.9166,-396 386.9165,-399.5001 386.9166,-392.5001"/>
</g>
<!-- WeldedComponent&#45;&gt;Material -->
<g id="edge11" class="edge">
<title>WeldedComponent&#45;&gt;Material</title>
<path fill="none" stroke="#006400" d="M473.0861,-383.3951C463.1457,-379.7509 453.4709,-375.0539 445.0911,-369 421.71,-352.1084 433.0745,-331.0248 409.0911,-315 306.2507,-246.2859 255.9404,-291.5603 136.0911,-261 123.0344,-257.6707 109.0318,-253.5284 96.195,-249.496"/>
<polygon fill="#006400" stroke="#006400" points="97.2315,-246.1529 86.6409,-246.4491 95.1047,-252.822 97.2315,-246.1529"/>
</g>
<!-- Crystal -->
<g id="node12" class="node">
<title>Crystal</title>
<g id="a_node12"><a xlink:href="http://www.emmc.info/emmc-csa/demo#DEMO_a71f18eb-596e-47af-acf6-852918332359" xlink:title="Crystal">
<ellipse fill="#ffffcc" stroke="#000000" cx="543.2324" cy="-18" rx="44.393" ry="18"/>
<text text-anchor="middle" x="543.2324" y="-14.3" font-family="Times,serif" font-size="14.00" fill="#000000">Crystal</text>
</a>
</g>
</g>
<!-- Crystal&#45;&gt;CrystalUnitCell -->
<g id="edge23" class="edge">
<title>Crystal&#45;&gt;CrystalUnitCell</title>
<path fill="none" stroke="#006400" d="M499.24,-20.5058C480.2936,-23.7807 459.28,-30.6991 445.0911,-45 401.3552,-89.0814 450.3785,-133.6173 409.0911,-180 392.4113,-198.7384 368.3765,-211.0504 345.1093,-219.1076"/>
<polygon fill="#006400" stroke="#006400" points="343.9921,-215.7903 335.5571,-222.2013 346.149,-222.4498 343.9921,-215.7903"/>
</g>
<!-- Solid -->
<g id="node22" class="node">
<title>Solid</title>
<g id="a_node22"><a xlink:href="http://emmo.info/emmo/middle/materials#EMMO_a2b006f2_bbfd_4dba_bcaa_3fca20cd6be1" xlink:title="Solid">
<ellipse fill="#ffffcc" stroke="#ff0000" cx="272.5911" cy="-18" rx="34.394" ry="18"/>
<text text-anchor="middle" x="272.5911" y="-14.3" font-family="Times,serif" font-size="14.00" fill="#000000">Solid</text>
</a>
</g>
</g>
<!-- Crystal&#45;&gt;Solid -->
<g id="edge22" class="edge">
<title>Crystal&#45;&gt;Solid</title>
<path fill="none" stroke="#000000" d="M498.8446,-18C448.7235,-18 367.6258,-18 317.3517,-18"/>
<polygon fill="none" stroke="#000000" points="317.1139,-14.5001 307.1139,-18 317.1139,-21.5001 317.1139,-14.5001"/>
</g>
<!-- key1 -->
<g id="node23" class="node">
<title>key1</title>
<text text-anchor="start" x="377.5911" y="-768.8" font-family="Times,serif" font-size="14.00" fill="#000000">isA</text>
<text text-anchor="start" x="296.5911" y="-749.8" font-family="Times,serif" font-size="14.00" fill="#000000">demo.hasType</text>
<text text-anchor="start" x="232.5911" y="-730.8" font-family="Times,serif" font-size="14.00" fill="#000000">properties.hasProperty</text>
<text text-anchor="start" x="146.5911" y="-711.8" font-family="Times,serif" font-size="14.00" fill="#000000">reductionistic.hasSpatialDirectPart</text>
</g>
<!-- key2 -->
<g id="node24" class="node">
<title>key2</title>
<text text-anchor="start" x="541.2324" y="-768.8" font-family="Times,serif" font-size="14.00" fill="#000000"> </text>
<text text-anchor="start" x="541.2324" y="-749.8" font-family="Times,serif" font-size="14.00" fill="#000000"> </text>
<text text-anchor="start" x="541.2324" y="-730.8" font-family="Times,serif" font-size="14.00" fill="#000000"> </text>
<text text-anchor="start" x="541.2324" y="-711.8" font-family="Times,serif" font-size="14.00" fill="#000000"> </text>
</g>
<!-- key2&#45;&gt;key1 -->
<g id="edge26" class="edge">
<title>key2:w&#45;&gt;key1:e</title>
<path fill="none" stroke="#000000" d="M539.2324,-773C481.6429,-773 464.7147,-773 411.8903,-773"/>
<polygon fill="none" stroke="#000000" points="411.5912,-769.5001 401.5911,-773 411.5911,-776.5001 411.5912,-769.5001"/>
</g>
<!-- key2&#45;&gt;key1 -->
<g id="edge27" class="edge">
<title>key2:w&#45;&gt;key1:e</title>
<path fill="none" stroke="#ffa500" stroke-dasharray="5,2" d="M539.2324,-754C481.6429,-754 464.7147,-754 411.8903,-754"/>
<polygon fill="#ffa500" stroke="#ffa500" points="411.5912,-750.5001 401.5911,-754 411.5911,-757.5001 411.5912,-750.5001"/>
</g>
<!-- key2&#45;&gt;key1 -->
<g id="edge28" class="edge">
<title>key2:w&#45;&gt;key1:e</title>
<path fill="none" stroke="#ffa500" stroke-dasharray="1,5" d="M539.2324,-734C481.6429,-734 464.7147,-734 411.8903,-734"/>
<polygon fill="#ffa500" stroke="#ffa500" points="411.5912,-730.5001 401.5911,-734 411.5911,-737.5001 411.5912,-730.5001"/>
</g>
<!-- key2&#45;&gt;key1 -->
<g id="edge29" class="edge">
<title>key2:w&#45;&gt;key1:e</title>
<path fill="none" stroke="#006400" d="M539.2324,-715C481.6429,-715 464.7147,-715 411.8903,-715"/>
<polygon fill="#006400" stroke="#006400" points="411.5912,-711.5001 401.5911,-715 411.5911,-718.5001 411.5912,-711.5001"/>
</g>
</g>
</svg>
