<?xml version="1.0" encoding="UTF-8" standalone="no"?>
<!DOCTYPE svg PUBLIC "-//W3C//DTD SVG 1.1//EN"
 "http://www.w3.org/Graphics/SVG/1.1/DTD/svg11.dtd">
<!-- Generated by graphviz version 2.40.1 (0)
 -->
<!-- Title: %3 Pages: 1 -->
<svg width="561pt" height="452pt"
 viewBox="0.00 0.00 560.97 451.50" xmlns="http://www.w3.org/2000/svg" xmlns:xlink="http://www.w3.org/1999/xlink">
<g id="graph0" class="graph" transform="scale(1 1) rotate(0) translate(4 447.5)">
<title>%3</title>
<polygon fill="#ffffff" stroke="transparent" points="-4,4 -4,-447.5 556.9651,-447.5 556.9651,4 -4,4"/>
<!-- Position -->
<g id="node1" class="node">
<title>Position</title>
<g id="a_node1"><a xlink:href="http://www.emmc.info/emmc-csa/demo#DEMO_35227902-45c6-4d3a-a754-3aa7084c3647" xlink:title="Position">
<ellipse fill="#ffffcc" stroke="#000000" cx="402.5675" cy="-234" rx="48.1917" ry="18"/>
<text text-anchor="middle" x="402.5675" y="-230.3" font-family="Times,serif" font-size="14.00" fill="#000000">Position</text>
</a>
</g>
</g>
<!-- Length -->
<g id="node6" class="node">
<title>Length</title>
<g id="a_node6"><a xlink:href="http://emmo.info/emmo/middle/isq#EMMO_cd2cd0de_e0cc_4ef1_b27e_2e88db027bac" xlink:title="Length">
<ellipse fill="#ffffcc" stroke="#ff0000" cx="120.2393" cy="-207" rx="43.5923" ry="18"/>
<text text-anchor="middle" x="120.2393" y="-203.3" font-family="Times,serif" font-size="14.00" fill="#000000">Length</text>
</a>
</g>
</g>
<!-- Position&#45;&gt;Length -->
<g id="edge1" class="edge">
<title>Position&#45;&gt;Length</title>
<path fill="none" stroke="#000000" d="M355.9467,-229.5415C305.5838,-224.7251 225.5074,-217.0671 172.9063,-212.0367"/>
<polygon fill="none" stroke="#000000" points="173.0572,-208.5353 162.7694,-211.0673 172.3907,-215.5035 173.0572,-208.5353"/>
</g>
<!-- Real -->
<g id="node7" class="node">
<title>Real</title>
<g id="a_node7"><a xlink:href="http://emmo.info/emmo/middle/math#EMMO_18d180e4_5e3e_42f7_820c_e08951223486" xlink:title="Real">
<ellipse fill="#ffc880" stroke="#ff0000" cx="402.5675" cy="-126" rx="31.3957" ry="18"/>
<text text-anchor="middle" x="402.5675" y="-122.3" font-family="Times,serif" font-size="14.00" fill="#000000">Real</text>
</a>
</g>
</g>
<!-- Position&#45;&gt;Real -->
<g id="edge2" class="edge">
<title>Position&#45;&gt;Real</title>
<path fill="none" stroke="#ffa500" stroke-dasharray="5,2" d="M449.9651,-237.4937C483.9856,-237.0268 527.1362,-229.5842 546.6563,-198 555.068,-184.3896 555.068,-175.6104 546.6563,-162 525.9564,-128.5069 478.6834,-122.1617 443.9039,-122.4943"/>
<polygon fill="#ffa500" stroke="#ffa500" points="443.4509,-119.0057 433.5547,-122.7893 443.6504,-126.0029 443.4509,-119.0057"/>
</g>
<!-- LatticeVector -->
<g id="node2" class="node">
<title>LatticeVector</title>
<g id="a_node2"><a xlink:href="http://www.emmc.info/emmc-csa/demo#DEMO_6c4ba548-cfa3-4741-8aee-f0414635c87d" xlink:title="LatticeVector">
<ellipse fill="#ffffcc" stroke="#000000" cx="402.5675" cy="-180" rx="72.5877" ry="18"/>
<text text-anchor="middle" x="402.5675" y="-176.3" font-family="Times,serif" font-size="14.00" fill="#000000">LatticeVector</text>
</a>
</g>
</g>
<!-- LatticeVector&#45;&gt;Length -->
<g id="edge5" class="edge">
<title>LatticeVector&#45;&gt;Length</title>
<path fill="none" stroke="#000000" d="M334.5836,-186.5015C284.9801,-191.2453 218.7136,-197.5826 173.0601,-201.9486"/>
<polygon fill="none" stroke="#000000" points="172.6929,-198.4676 163.0716,-202.9038 173.3594,-205.4358 172.6929,-198.4676"/>
</g>
<!-- LatticeVector&#45;&gt;Real -->
<g id="edge6" class="edge">
<title>LatticeVector&#45;&gt;Real</title>
<path fill="none" stroke="#ffa500" stroke-dasharray="5,2" d="M402.5675,-161.7902C402.5675,-159.3082 402.5675,-156.8262 402.5675,-154.3443"/>
<polygon fill="#ffa500" stroke="#ffa500" points="406.0676,-154.1406 402.5675,-144.1406 399.0676,-154.1407 406.0676,-154.1406"/>
</g>
<!-- StiffnessTensor -->
<g id="node3" class="node">
<title>StiffnessTensor</title>
<g id="a_node3"><a xlink:href="http://www.emmc.info/emmc-csa/demo#DEMO_7a270c65-6af0-4fac-8d28-4e1ee0b83e55" xlink:title="StiffnessTensor">
<ellipse fill="#ffffcc" stroke="#000000" cx="402.5675" cy="-72" rx="82.5854" ry="18"/>
<text text-anchor="middle" x="402.5675" y="-68.3" font-family="Times,serif" font-size="14.00" fill="#000000">StiffnessTensor</text>
</a>
</g>
</g>
<!-- StiffnessTensor&#45;&gt;Real -->
<g id="edge4" class="edge">
<title>StiffnessTensor&#45;&gt;Real</title>
<path fill="none" stroke="#ffa500" stroke-dasharray="5,2" d="M402.5675,-90.1406C402.5675,-92.6226 402.5675,-95.1046 402.5675,-97.5865"/>
<polygon fill="#ffa500" stroke="#ffa500" points="399.0676,-97.7901 402.5675,-107.7902 406.0676,-97.7902 399.0676,-97.7901"/>
</g>
<!-- Pressure -->
<g id="node8" class="node">
<title>Pressure</title>
<g id="a_node8"><a xlink:href="http://emmo.info/emmo/middle/isq#EMMO_50a44256_9dc5_434b_bad4_74a4d9a29989" xlink:title="Pressure">
<ellipse fill="#ffffcc" stroke="#ff0000" cx="120.2393" cy="-72" rx="51.9908" ry="18"/>
<text text-anchor="middle" x="120.2393" y="-68.3" font-family="Times,serif" font-size="14.00" fill="#000000">Pressure</text>
</a>
</g>
</g>
<!-- StiffnessTensor&#45;&gt;Pressure -->
<g id="edge3" class="edge">
<title>StiffnessTensor&#45;&gt;Pressure</title>
<path fill="none" stroke="#000000" d="M319.7674,-72C275.9113,-72 222.9334,-72 182.5921,-72"/>
<polygon fill="none" stroke="#000000" points="182.3588,-68.5001 172.3588,-72 182.3587,-75.5001 182.3588,-68.5001"/>
</g>
<!-- SquareMetre -->
<g id="node4" class="node">
<title>SquareMetre</title>
<g id="a_node4"><a xlink:href="http://www.emmc.info/emmc-csa/demo#DEMO_f9e7223b-4af3-4922-afa8-ffa94285fd20" xlink:title="SquareMetre">
<ellipse fill="#ffffcc" stroke="#000000" cx="402.5675" cy="-342" rx="72.2875" ry="18"/>
<text text-anchor="middle" x="402.5675" y="-338.3" font-family="Times,serif" font-size="14.00" fill="#000000">SquareMetre</text>
</a>
</g>
</g>
<!-- SICoherentDerivedUnit -->
<g id="node10" class="node">
<title>SICoherentDerivedUnit</title>
<g id="a_node10"><a xlink:href="http://emmo.info/emmo/middle/siunits#EMMO_1273eb34_de48_43a9_925f_104110469dd2" xlink:title="SICoherentDerivedUnit">
<ellipse fill="#ffffcc" stroke="#ff0000" cx="120.2393" cy="-342" rx="120.4791" ry="18"/>
<text text-anchor="middle" x="120.2393" y="-338.3" font-family="Times,serif" font-size="14.00" fill="#000000">SICoherentDerivedUnit</text>
</a>
</g>
</g>
<!-- SquareMetre&#45;&gt;SICoherentDerivedUnit -->
<g id="edge9" class="edge">
<title>SquareMetre&#45;&gt;SICoherentDerivedUnit</title>
<path fill="none" stroke="#000000" d="M330.2276,-342C305.9276,-342 278.0251,-342 250.6639,-342"/>
<polygon fill="none" stroke="#000000" points="250.6156,-338.5001 240.6156,-342 250.6156,-345.5001 250.6156,-338.5001"/>
</g>
<!-- SquareLengthDimension -->
<g id="node11" class="node">
<title>SquareLengthDimension</title>
<g id="a_node11"><a xlink:href="http://www.emmc.info/emmc-csa/demo#DEMO_e81af708-88f8-4561-a217-3eb35d34fff8" xlink:title="SquareLengthDimension">
<ellipse fill="#ffffcc" stroke="#ff0000" cx="402.5675" cy="-288" rx="126.1777" ry="18"/>
<text text-anchor="middle" x="402.5675" y="-284.3" font-family="Times,serif" font-size="14.00" fill="#000000">SquareLengthDimension</text>
</a>
</g>
</g>
<!-- SquareMetre&#45;&gt;SquareLengthDimension -->
<g id="edge10" class="edge">
<title>SquareMetre&#45;&gt;SquareLengthDimension</title>
<path fill="none" stroke="#ffa500" stroke-dasharray="1,5" d="M402.5675,-323.7902C402.5675,-321.3082 402.5675,-318.8262 402.5675,-316.3443"/>
<polygon fill="#ffa500" stroke="#ffa500" points="406.0676,-316.1406 402.5675,-306.1406 399.0676,-316.1407 406.0676,-316.1406"/>
</g>
<!-- Area -->
<g id="node5" class="node">
<title>Area</title>
<g id="a_node5"><a xlink:href="http://www.emmc.info/emmc-csa/demo#DEMO_86a32a26-e007-4fbc-953b-85b5b271dc28" xlink:title="Area">
<ellipse fill="#ffffcc" stroke="#000000" cx="402.5675" cy="-18" rx="32.4942" ry="18"/>
<text text-anchor="middle" x="402.5675" y="-14.3" font-family="Times,serif" font-size="14.00" fill="#000000">Area</text>
</a>
</g>
</g>
<!-- Area&#45;&gt;Real -->
<g id="edge8" class="edge">
<title>Area&#45;&gt;Real</title>
<path fill="none" stroke="#ffa500" stroke-dasharray="5,2" d="M434.8117,-14.7329C469.9241,-13.2368 524.0861,-17.4807 546.6563,-54 555.068,-67.6104 555.068,-76.3896 546.6563,-90 525.9564,-123.4931 478.6834,-129.8383 443.9039,-129.5057"/>
<polygon fill="#ffa500" stroke="#ffa500" points="443.6504,-125.9971 433.5547,-129.2107 443.4509,-132.9943 443.6504,-125.9971"/>
</g>
<!-- ISQDerivedQuantity -->
<g id="node9" class="node">
<title>ISQDerivedQuantity</title>
<g id="a_node9"><a xlink:href="http://emmo.info/emmo/middle/isq#EMMO_2946d40b_24a1_47fa_8176_e3f79bb45064" xlink:title="ISQDerivedQuantity">
<ellipse fill="#ffffcc" stroke="#ff0000" cx="120.2393" cy="-18" rx="104.7816" ry="18"/>
<text text-anchor="middle" x="120.2393" y="-14.3" font-family="Times,serif" font-size="14.00" fill="#000000">ISQDerivedQuantity</text>
</a>
</g>
</g>
<!-- Area&#45;&gt;ISQDerivedQuantity -->
<g id="edge7" class="edge">
<title>Area&#45;&gt;ISQDerivedQuantity</title>
<path fill="none" stroke="#000000" d="M369.905,-18C336.8387,-18 283.7719,-18 235.0482,-18"/>
<polygon fill="none" stroke="#000000" points="235.0478,-14.5001 225.0478,-18 235.0477,-21.5001 235.0478,-14.5001"/>
</g>
<!-- key1 -->
<g id="node12" class="node">
<title>key1</title>
<text text-anchor="start" x="176.2393" y="-425.8" font-family="Times,serif" font-size="14.00" fill="#000000">isA</text>
<text text-anchor="start" x="43.2393" y="-406.8" font-family="Times,serif" font-size="14.00" fill="#000000">hasPhysicsDimension</text>
<text text-anchor="start" x="138.2393" y="-387.8" font-family="Times,serif" font-size="14.00" fill="#000000">hasType</text>
</g>
<!-- key2 -->
<g id="node13" class="node">
<title>key2</title>
<text text-anchor="start" x="400.5675" y="-425.8" font-family="Times,serif" font-size="14.00" fill="#000000"> </text>
<text text-anchor="start" x="400.5675" y="-406.8" font-family="Times,serif" font-size="14.00" fill="#000000"> </text>
<text text-anchor="start" x="400.5675" y="-387.8" font-family="Times,serif" font-size="14.00" fill="#000000"> </text>
</g>
<!-- key2&#45;&gt;key1 -->
<g id="edge11" class="edge">
<title>key2:w&#45;&gt;key1:e</title>
<path fill="none" stroke="#000000" d="M398.5675,-430C313.8648,-430 290.2076,-430 210.2742,-430"/>
<polygon fill="none" stroke="#000000" points="210.2394,-426.5001 200.2393,-430 210.2393,-433.5001 210.2394,-426.5001"/>
</g>
<!-- key2&#45;&gt;key1 -->
<g id="edge12" class="edge">
<title>key2:w&#45;&gt;key1:e</title>
<path fill="none" stroke="#ffa500" stroke-dasharray="1,5" d="M398.5675,-410C313.8648,-410 290.2076,-410 210.2742,-410"/>
<polygon fill="#ffa500" stroke="#ffa500" points="210.2394,-406.5001 200.2393,-410 210.2393,-413.5001 210.2394,-406.5001"/>
</g>
<!-- key2&#45;&gt;key1 -->
<g id="edge13" class="edge">
<title>key2:w&#45;&gt;key1:e</title>
<path fill="none" stroke="#ffa500" stroke-dasharray="5,2" d="M398.5675,-391C313.8648,-391 290.2076,-391 210.2742,-391"/>
<polygon fill="#ffa500" stroke="#ffa500" points="210.2394,-387.5001 200.2393,-391 210.2393,-394.5001 210.2394,-387.5001"/>
</g>
</g>
</svg>
