<?xml version="1.0" encoding="UTF-8"?>
<svg enable-background="new 0 0 468.293 468.293" version="1.1" viewBox="0 0 512 512" xml:space="preserve"
	 xmlns="http://www.w3.org/2000/svg">
<path d="m322.31 468.29h-70.152c-3.448 0-6.244-2.796-6.244-6.244v-455.8c0-3.448 2.795-6.244 6.244-6.244h70.152c3.448 0 6.244 2.795 6.244 6.244v455.8c0 3.448-2.796 6.244-6.244 6.244z" fill="#EBF0F3"/>
<polygon points="424.97 413.63 328.56 463.13 328.56 5.165 424.97 54.667" fill="#D5D6DB"/>
<circle cx="287.22" cy="65.424" r="24.101" fill="#27A2DB"/>
<circle cx="287.22" cy="134.31" r="17.214" fill="#E56353"/>
<rect x="273.48" y="244.04" width="27.548" height="182.95" fill="#D5D6DB"/>
<path d="m146.34 467.05c-3.081 1.309-8.098 2.243-14.505-0.731-12.304-5.723-25.507-24.678-32.11-46.098-6.361-20.658-1.775-51.384-1.573-52.681l1.563-10.231 8.448 5.974c1.075 0.758 26.381 18.784 36.83 37.708l-1e-3 -3e-3c10.834 19.622 15.312 42.284 10.891 55.114-2.307 6.676-6.463 9.639-9.543 10.948zm-36.712-86.423c-0.739 10.094-1.017 24.993 2.325 35.83 6.186 20.101 17.641 34.717 25.275 38.265 3.432 1.595 5.329 0.789 6.564-2.789 2.746-7.958 0.177-26.349-9.999-44.759-5.49-9.947-16.397-20.081-24.165-26.547z" fill="#64798A"/>
<path d="m156.41 383.38h-89.468c-15.292 0-26.549-14.316-22.942-29.176l8.656-35.662v-253.7l-8.656-35.662c-3.607-14.862 7.65-29.178 22.942-29.178h89.468c15.292 0 26.549 14.316 22.942 29.176l-8.656 35.662v253.7l8.656 35.662c3.607 14.862-7.65 29.178-22.942 29.178z" fill="#D5D6DB"/>
<g fill="#64798A">
	<circle cx="88.07" cy="67.134" r="11.801"/>
	<circle cx="135.3" cy="67.134" r="11.801"/>
	<circle cx="88.07" cy="107.13" r="11.801"/>
	<circle cx="135.3" cy="107.13" r="11.801"/>
	<circle cx="88.07" cy="146.48" r="11.801"/>
	<circle cx="135.3" cy="146.48" r="11.801"/>
	<circle cx="88.07" cy="185.82" r="11.801"/>
	<circle cx="135.3" cy="185.82" r="11.801"/>
	<circle cx="88.07" cy="225.17" r="11.801"/>
	<circle cx="135.3" cy="225.17" r="11.801"/>
	<circle cx="111.68" cy="292.9" r="35.409"/>
</g>
<path d="m129.8 287.41h-12.638v-12.634c0-3.029-2.458-5.487-5.487-5.487s-5.487 2.458-5.487 5.487v12.634h-12.63c-3.029 0-5.487 2.458-5.487 5.487s2.458 5.487 5.487 5.487h12.631v12.634c0 3.029 2.458 5.487 5.487 5.487s5.487-2.458 5.487-5.487v-12.634h12.638c3.029 0 5.487-2.458 5.487-5.487-2e-3 -3.029-2.459-5.487-5.488-5.487z" fill="#E1E6E9"/>
</svg>